#!OML:ASF F:\VICON\USERDATA\INSTALL\rory3\rory3.ASF
:FULLY-SPECIFIED
:DEGREES
51
root 0.06993826885687965 18.146961859076438 6.1719767314221174 -3.793585712433585 -0.009016350242053273 -4.438297801487417
lfemur -12.235736361475409 0.5501880473707454 -14.661279930713288
ltibia 66.20032127455184
lfoot 10.503274410140598 -14.475516185874667
ltoes -3.2397522188423626
rfemur -11.651093480435973 6.77598884765345 30.219259214551997
rtibia 28.163133486600053
rfoot -11.595427518444758 -4.930323660718823
rtoes 7.157992257437917
lowerback 9.775814556237261 -0.22957803043812103 2.488950445581869
upperback 0.34617840555266666 0.12579313409523546 2.5151249979818906
thorax -5.173078337893298 0.013284495549600484 0.8179957821595518
lowerneck -15.847049617713697 -2.636030607588377 -1.8639622719482867
upperneck 22.097696512637214 -3.199744302382391 0.3919416753326669
head 9.723516918017552 -1.5956966734020717 -0.004974209925346917
lclavicle -1.387428045817631e-15 -1.8436986000241003e-15
lhumerus -32.33480865797025 0.8817044691581577 83.3028964987888
lradius 27.79756180893331
lwrist 3.7350348663172532
lhand -26.266159603923487 25.313282054427642
lfingers 7.125019999999999
lthumb 0.6519878076596093 55.89774709910577
rclavicle -1.3874280459096401e-15 -1.8436986001091218e-15
rhumerus -30.993784577685087 -25.28341754219 -74.71978963431557
rradius 20.62451796448504
rwrist 8.000365983346612
rhand -17.90373641243343 22.204725422846085
rfingers 7.125019999999999
rthumb 8.252440028092101 -7.66979758240361
52
root 0.03762022544998139 18.15568994428 6.658572501879952 -3.750283245386841 -0.37084315045372396 -4.875486783622063
lfemur -17.216000430306924 2.294110361664562 -14.358427584205776
ltibia 68.77651417865407
lfoot 3.24739861360312 -11.481489003402597
ltoes -5.891994558199087
rfemur -8.59326149751142 6.876079477512287 30.999233110618363
rtibia 27.185677267058665
rfoot -12.774813818705077 -4.962041042765559
rtoes 6.931819948145684
lowerback 9.831824813823816 0.0879735736666418 2.970784436290248
upperback 0.36913980259398094 0.5913249367665409 2.3801177571789105
thorax -5.196876946602571 0.231879533760341 0.40022550690341097
lowerneck -15.746668942998141 -2.6753745286234576 -1.7608730205319594
upperneck 22.052216816988185 -3.313690249275694 0.41416469719159515
head 9.681707068252203 -1.632957553538232 -0.020450413955930224
lclavicle -1.3874280458206002e-15 -1.8436986000273958e-15
lhumerus -33.00203806949994 1.266187510283677 83.31565535421451
lradius 26.830648583224676
lwrist 3.0694814544935496
lhand -26.993967328797886 24.08498718656125
lfingers 7.125019999999999
lthumb -0.07618261220009137 54.768694983428915
rclavicle -1.3874280459139043e-15 -1.8436986001135828e-15
rhumerus -29.298931956918967 -22.734857841906347 -76.68047899668734
rradius 21.902200516138684
rwrist 5.6169417720207715
rhand -18.088019654137227 21.908537646541912
rfingers 7.125019999999999
rthumb 8.038937776896102 -7.975847466714466
53
root 0.016621773632485792 18.156725900734326 7.240219935719026 -3.592661447971953 -0.6186916592189186 -5.409560255028598
lfemur -21.351979939178925 3.5212848443169262 -14.110592991473183
ltibia 68.38794445653153
lfoot -1.7384606279800785 -8.421102358312567
ltoes -6.491089009687277
rfemur -6.155155978155943 6.444745355099313 32.202035560172256
rtibia 26.65811303363442
rfoot -13.680693191965377 -4.973569459998856
rtoes 6.817694203489712
lowerback 9.965622697343061 0.3824863998405524 3.583487329080517
upperback 0.2882809066946056 1.0749132918436861 2.255022873042769
thorax -5.3815964703060555 0.45729384384343674 0.015271628634297985
lowerneck -15.713643432457003 -2.708389607313171 -1.7063108112446037
upperneck 21.963976875625985 -3.408731311716704 0.4741178731022755
head 9.661883821678861 -1.6647782703806535 -0.0074934039083817405
lclavicle -1.3874280458202545e-15 -1.8436986000268578e-15
lhumerus -33.615309638464964 1.91947363481628 83.16349726249463
lradius 25.81651829238446
lwrist 3.3066398073013223
lhand -27.31605012443185 23.641479390563926
lfingers 7.125019999999999
lthumb -0.47137258547045635 54.17158690091083
rclavicle -1.3874280459181999e-15 -1.8436986001175208e-15
rhumerus -27.75912980317645 -20.06608418607335 -78.11613947476646
rradius 23.31661174875218
rwrist 3.0736568294237103
rhand -18.27480830002864 21.90909860157775
rfingers 7.125019999999999
rthumb 7.811810209830098 -7.982855439659838
54
root 0.03280884917117394 18.093361185314052 8.30540963346471 -3.228462978652689 -1.0761215501149872 -5.865080228197401
lfemur -24.50134226557588 4.040297771941428 -13.925002396739242
ltibia 65.16996013504209
lfoot -5.2348197338730635 -5.840491992166241
ltoes -6.897293233619887
rfemur -4.9323212280170665 6.16226907394313 33.07110028964917
rtibia 27.61981847072414
rfoot -14.765420076964936 -4.560239474358985
rtoes 6.952961342474967
lowerback 10.026682078388118 0.7128815046191376 4.430033736598851
upperback 0.1964312889188062 1.6156636835377476 2.1551677705671364
thorax -5.480131830341269 0.7335983942927728 -0.5972238070266083
lowerneck -15.776173688358938 -2.722730531167223 -1.6235118990038018
upperneck 21.704275387499244 -3.433515760667486 0.4329223395068905
head 9.579143310652027 -1.67358951535831 -0.033926330866467486
lclavicle -1.3874280458229394e-15 -1.843698600029425e-15
lhumerus -34.21081761953665 2.9757741412957186 82.87418927678449
lradius 24.62555043279591
lwrist 3.513363918862973
lhand -26.707133008753402 24.547412682315333
lfingers 7.125019999999999
lthumb 0.07427238295803784 54.89775189942739
rclavicle -1.3874280459220572e-15 -1.8436986001211365e-15
rhumerus -26.217132834565817 -17.634252406042247 -78.96024672290766
rradius 24.772894591216097
rwrist 0.6315043718814444
rhand -18.500455528628464 21.994895544371296
rfingers 7.125019999999999
rthumb 7.579977354583024 -7.877879211340311
